HIERARCHY
ROOT pelvis
{
  OFFSET 0 100 0
  CHANNELS 6 Xposition Yposition Zposition Zrotation Xrotation Yrotation
  JOINT pelvis_right_femur
  {
    OFFSET -10.78128 -3.44521 -0.5502486
    CHANNELS 3 Zrotation Xrotation Yrotation
    JOINT right_femur_tibia
    {
      OFFSET -0.8047443 -44.0398 -0.1307829
      CHANNELS 3 Zrotation Xrotation Yrotation
      JOINT right_tibia_foot
      {
        OFFSET 3.006224 -47.83518 -5
        CHANNELS 3 Zrotation Xrotation Yrotation
        End Site
        {
          OFFSET 0 -5 15
        }
      }
    }
  }
  JOINT pelvis_left_femur
  {
    OFFSET 10.78128 -3.44521 -0.5502486
    CHANNELS 3 Zrotation Xrotation Yrotation
    JOINT left_femur_tibia
    {
      OFFSET 0.8047443 -44.0398 -0.1307829
      CHANNELS 3 Zrotation Xrotation Yrotation
      JOINT left_tibia_foot
      {
        OFFSET -4.370144 -48.10324 -4.275266
        CHANNELS 3 Zrotation Xrotation Yrotation
        End Site
        {
          OFFSET 0 -5 15
        }
      }
    }
  }
  JOINT pelvis_spine1
  {
    OFFSET 0 6.468898 -3.129235
    CHANNELS 3 Zrotation Xrotation Yrotation
    JOINT spine1
    {
      OFFSET 0 23.15396 4.99043
      CHANNELS 3 Zrotation Xrotation Yrotation
      JOINT spine2
      {
        OFFSET 0 20.79997 -5.064912
        CHANNELS 3 Zrotation Xrotation Yrotation
        JOINT neck
        {
          OFFSET 0 14.38658 9.616178
          CHANNELS 3 Zrotation Xrotation Yrotation
          End Site
          {
            OFFSET 0 20 0
          }
        }
      }
      JOINT right_manubrium
      {
        OFFSET -5.722621 16.35077 3.967754
        CHANNELS 3 Zrotation Xrotation Yrotation
        JOINT right_clavicle
        {
          OFFSET -13.16364 1.694482 -4.693211
          CHANNELS 3 Zrotation Xrotation Yrotation
          JOINT right_humerus
          {
            OFFSET -28.5034 -0.3100689 -2.792744
            CHANNELS 3 Zrotation Xrotation Yrotation
            JOINT right_radius
            {
              OFFSET -25.15693 0.02248979 -1.271978
              CHANNELS 3 Zrotation Xrotation Yrotation
              End Site
              {
                OFFSET -15 0 0
              }
            }
          }
        }
      }
      JOINT left_manubrium
      {
        OFFSET 5.722621 16.35077 3.967754
        CHANNELS 3 Zrotation Xrotation Yrotation
        JOINT left_clavicle
        {
          OFFSET 13.16364 1.694482 -4.693211
          CHANNELS 3 Zrotation Xrotation Yrotation
          JOINT left_humerus
          {
            OFFSET 29.39168 -1.063119 -2.237045
            CHANNELS 3 Zrotation Xrotation Yrotation
            JOINT left_radius
            {
              OFFSET 24.59957 -0.9528479 0.9047498
              CHANNELS 3 Zrotation Xrotation Yrotation
              End Site
              {
                OFFSET 15 -0 -0
              }
            }
          }
        }
      }
    }
  }
}
MOTION
Frames: 7
Frame Time: 0.0416666666667
41.01012 100.7855 247.8457 2.814183 -8.411436 -0.832166 -0.5573786 22.59458 7.797953 -0 15.62857 -0 7.349989 -14.70725 0.2811895 -1.361064 -24.9616 -5.88732 -0 29.51467 -0 -7.401481 -6.152065 19.88334 -1.612642 -0.6573087 9.955986 -1.722752 10.07317 -2.132692 2.533784 21.83896 5.091328 1.778464 -14.6455 7.216281 1.557356 -21.40824 11.58345 80.06087 22.29975 -4.947974 -0 0 26.38998 -25.52931 14.05034 13.46294 4.617654 -14.38664 -2.934983 -93.29956 21.53654 25.20379 0 0 -11.70345 -2.842731 6.996485 16.03547
42.2968 100.3983 254.5737 2.95155 -8.421103 -0.8821366 -1.261194 22.56914 7.511761 -0 21.05372 -0 7.990852 -13.66594 -0.009837537 -2.266862 -23.77139 -6.839005 -0 27.28064 -0 -7.360265 -6.680197 19.48382 -1.858354 -0.8901041 9.769664 -1.896215 9.681715 -2.061492 2.608774 21.91522 5.075982 1.619767 -14.62105 7.430813 1.463373 -21.17791 11.28989 80.30344 22.07251 -4.731533 -0 0 26.25848 -25.47564 13.89362 13.4144 4.440701 -13.75205 -2.938403 -93.2177 21.87178 25.32262 0 0 -10.75077 -3.063015 7.036771 16.40051
43.61358 100.3886 261.3659 3.160172 -8.544488 -0.6281498 -1.907989 21.47269 7.02364 -0 27.17256 -0 8.473122 -12.15783 -0.651511 -3.381913 -21.33979 -7.842977 -0 26.12745 -0 -7.275189 -7.309909 18.99171 -2.178922 -1.127255 9.446901 -1.975824 9.389444 -2.097559 2.664212 22.08761 5.085516 1.457264 -14.54128 7.663999 1.530298 -20.60654 11.00139 80.88422 22.04495 -5.157248 -0 0 25.35046 -25.23539 13.80974 13.1686 4.266222 -13.37077 -3.004332 -92.78639 22.28189 24.79803 0 0 -10.21371 -3.154551 7.150582 16.6022
44.93098 100.7964 268.1046 3.386495 -8.766207 -0.06612873 -2.382871 19.17659 6.343163 -0 33.33753 -0 8.757941 -10.52702 -1.575008 -4.490057 -17.86142 -8.756068 -0 25.57106 -0 -7.156772 -8.077392 18.4341 -2.511482 -1.274265 8.942157 -1.963562 9.180531 -2.252887 2.686295 22.35268 5.12533 1.282771 -14.39567 7.911123 1.700434 -19.78442 10.72987 81.75284 22.19279 -6.108673 -0 0 23.84723 -24.81981 13.78519 12.7662 4.127547 -13.27362 -3.130736 -91.99697 22.75035 23.59816 0 0 -10.15822 -3.096566 7.347701 16.60012
46.22099 101.5572 274.6669 3.561556 -9.054673 0.7613389 -2.582735 15.58187 5.514216 -0 38.75188 -0 8.800088 -9.157964 -2.6747 -5.398213 -13.58302 -9.482192 -0 25.04103 -0 -7.016561 -9.013347 17.82411 -2.780138 -1.235727 8.206553 -1.863548 9.02675 -2.550423 2.665488 22.69553 5.197987 1.089491 -14.18237 8.167567 1.894666 -18.82399 10.48268 82.84833 22.47948 -7.438243 -0 0 21.9823 -24.24443 13.80014 12.25928 4.055652 -13.47939 -3.316356 -90.85114 23.2472 21.71065 0 0 -10.62567 -2.869105 7.634253 16.36002
47.45663 102.5347 280.9559 3.657091 -9.360053 1.789216 -2.521562 10.80498 4.622286 -0 42.76839 -0 8.573377 -8.244928 -3.84856 -6.026304 -8.773153 -10.00613 -0 24.20786 -0 -6.868749 -10.11593 17.16804 -2.951308 -0.9935806 7.247754 -1.683687 8.896424 -2.995773 2.6108 23.08883 5.29296 0.8825274 -13.91296 8.425245 2.042695 -17.80288 10.25157 84.1067 22.85589 -9.024963 -0 0 19.94745 -23.53493 13.83112 11.68908 4.073922 -13.96822 -3.550314 -89.39126 23.73006 19.19188 0 0 -11.60136 -2.47172 8.00686 15.87388
48.61623 103.5511 286.9423 3.697188 -9.590083 2.950789 -2.329959 5.248301 3.779979 -0 44.74856 -0 8.075254 -7.76782 -4.993671 -6.389908 -3.752924 -10.36722 -0 23.0196 -0 -6.733142 -11.34753 16.46502 -3.051106 -0.6295022 6.147851 -1.434679 8.7485 -3.573801 2.559643 23.48613 5.377999 0.6853355 -13.61516 8.668347 2.072318 -16.75525 10.00344 85.44709 23.25562 -10.77517 -0 0 17.89663 -22.73026 13.84616 11.08433 4.21 -14.67639 -3.805507 -87.71029 24.15369 16.17992 0 0 -13.02206 -1.924767 8.455412 15.15505
